<mxfile host="app.diagrams.net" agent="Mozilla/5.0 (Macintosh; Intel Mac OS X 10_10_5) AppleWebKit/537.36 (KHTML, like Gecko) Chrome/87.0.4280.88 Safari/537.36" version="27.0.2">
  <diagram name="Страница — 1" id="1lgbH9x4u3ROzhYAGhE-">
    <mxGraphModel dx="875" dy="626" grid="1" gridSize="10" guides="1" tooltips="1" connect="1" arrows="1" fold="1" page="1" pageScale="1" pageWidth="827" pageHeight="1169" math="0" shadow="0">
      <root>
        <mxCell id="0" />
        <mxCell id="1" parent="0" />
        <mxCell id="H34q3096vW5ZRXHq4TRd-3" value="R=0.608" style="rounded=0;orthogonalLoop=1;jettySize=auto;html=1;fontFamily=Times New Roman;fontSize=12;strokeWidth=3.04;strokeColor=default;" edge="1" parent="1" source="H34q3096vW5ZRXHq4TRd-1" target="H34q3096vW5ZRXHq4TRd-2">
          <mxGeometry relative="1" as="geometry" />
        </mxCell>
        <mxCell id="H34q3096vW5ZRXHq4TRd-5" value="R=0.555" style="rounded=0;orthogonalLoop=1;jettySize=auto;html=1;strokeWidth=2.775;fontFamily=Times New Roman;fontSize=12;strokeColor=default;" edge="1" parent="1" source="H34q3096vW5ZRXHq4TRd-1" target="H34q3096vW5ZRXHq4TRd-4">
          <mxGeometry relative="1" as="geometry" />
        </mxCell>
        <mxCell id="H34q3096vW5ZRXHq4TRd-1" value="&lt;span style=&quot;text-align: start; line-height: 19.9733px;&quot;&gt;&lt;font&gt;Демонстративный&lt;/font&gt;&lt;/span&gt;&lt;span style=&quot;text-align: start;&quot;&gt;&lt;/span&gt;" style="rounded=1;whiteSpace=wrap;html=1;fontFamily=Times New Roman;fontSize=12;fillColor=#ffe6cc;strokeColor=#d79b00;" vertex="1" parent="1">
          <mxGeometry width="120" height="60" as="geometry" />
        </mxCell>
        <mxCell id="H34q3096vW5ZRXHq4TRd-2" value="Человек-Человек" style="whiteSpace=wrap;html=1;rounded=1;fontFamily=Times New Roman;fontSize=12;fillColor=#dae8fc;strokeColor=#6c8ebf;" vertex="1" parent="1">
          <mxGeometry x="240" width="120" height="60" as="geometry" />
        </mxCell>
        <mxCell id="H34q3096vW5ZRXHq4TRd-4" value="&lt;br&gt;&lt;span&gt;&lt;font&gt;Артистический&lt;/font&gt;&lt;/span&gt;&lt;div&gt;&lt;br&gt;&lt;/div&gt;" style="whiteSpace=wrap;html=1;fontFamily=Times New Roman;fillColor=#d5e8d4;strokeColor=#82b366;rounded=1;fontSize=12;" vertex="1" parent="1">
          <mxGeometry y="140" width="120" height="60" as="geometry" />
        </mxCell>
        <mxCell id="H34q3096vW5ZRXHq4TRd-7" value="R=0.322" style="endArrow=classic;html=1;rounded=0;exitX=1;exitY=1;exitDx=0;exitDy=0;entryX=0;entryY=0;entryDx=0;entryDy=0;strokeWidth=1.61;fontFamily=Times New Roman;fontSize=12;strokeColor=default;" edge="1" parent="1" source="H34q3096vW5ZRXHq4TRd-1" target="H34q3096vW5ZRXHq4TRd-8">
          <mxGeometry width="50" height="50" relative="1" as="geometry">
            <mxPoint x="350" y="300" as="sourcePoint" />
            <mxPoint x="240" y="120" as="targetPoint" />
          </mxGeometry>
        </mxCell>
        <mxCell id="H34q3096vW5ZRXHq4TRd-8" value="&lt;span style=&quot;text-align: start; line-height: 19.9733px;&quot;&gt;&lt;font&gt;Направленность на себя&lt;/font&gt;&lt;/span&gt;&lt;span style=&quot;text-align: start;&quot;&gt;&lt;/span&gt;" style="rounded=1;whiteSpace=wrap;html=1;fillColor=#f8cecc;strokeColor=#b85450;fontFamily=Times New Roman;fontSize=12;" vertex="1" parent="1">
          <mxGeometry x="240" y="140" width="120" height="60" as="geometry" />
        </mxCell>
        <mxCell id="H34q3096vW5ZRXHq4TRd-13" value="R=0.777" style="rounded=0;orthogonalLoop=1;jettySize=auto;html=1;exitX=0.5;exitY=1;exitDx=0;exitDy=0;entryX=0.5;entryY=0;entryDx=0;entryDy=0;strokeWidth=3.885;fontFamily=Times New Roman;fontSize=12;strokeColor=default;" edge="1" parent="1" source="H34q3096vW5ZRXHq4TRd-10" target="H34q3096vW5ZRXHq4TRd-12">
          <mxGeometry relative="1" as="geometry" />
        </mxCell>
        <mxCell id="H34q3096vW5ZRXHq4TRd-16" value="R=0.224" style="rounded=0;orthogonalLoop=1;jettySize=auto;html=1;exitX=1;exitY=0.5;exitDx=0;exitDy=0;entryX=0;entryY=0.5;entryDx=0;entryDy=0;strokeWidth=1.12;fontFamily=Times New Roman;fontSize=12;strokeColor=default;" edge="1" parent="1" source="H34q3096vW5ZRXHq4TRd-10" target="H34q3096vW5ZRXHq4TRd-15">
          <mxGeometry relative="1" as="geometry" />
        </mxCell>
        <mxCell id="H34q3096vW5ZRXHq4TRd-10" value="&lt;br&gt;&lt;span&gt;Гипертимный&lt;/span&gt;&lt;div&gt;&lt;br&gt;&lt;/div&gt;" style="rounded=1;whiteSpace=wrap;html=1;fillColor=#ffe6cc;strokeColor=#d79b00;fontFamily=Times New Roman;fontSize=12;" vertex="1" parent="1">
          <mxGeometry x="480" width="120" height="60" as="geometry" />
        </mxCell>
        <mxCell id="H34q3096vW5ZRXHq4TRd-11" value="R=0.602" style="endArrow=classic;html=1;rounded=0;exitX=0;exitY=0.5;exitDx=0;exitDy=0;strokeWidth=3.01;fontFamily=Times New Roman;fontSize=12;strokeColor=default;" edge="1" parent="1" source="H34q3096vW5ZRXHq4TRd-10" target="H34q3096vW5ZRXHq4TRd-2">
          <mxGeometry width="50" height="50" relative="1" as="geometry">
            <mxPoint x="340" y="260" as="sourcePoint" />
            <mxPoint x="390" y="210" as="targetPoint" />
          </mxGeometry>
        </mxCell>
        <mxCell id="H34q3096vW5ZRXHq4TRd-12" value="&lt;br&gt;&lt;span&gt;Предпринимательский&lt;/span&gt;&lt;div&gt;&lt;br&gt;&lt;/div&gt;" style="rounded=1;whiteSpace=wrap;html=1;fillColor=#d5e8d4;strokeColor=#82b366;fontFamily=Times New Roman;fontSize=12;" vertex="1" parent="1">
          <mxGeometry x="480" y="140" width="120" height="60" as="geometry" />
        </mxCell>
        <mxCell id="H34q3096vW5ZRXHq4TRd-15" value="&lt;span style=&quot;text-align: start; line-height: 19.9733px;&quot;&gt;Н&lt;/span&gt;&lt;span style=&quot;text-align: start; background-color: transparent;&quot;&gt;аправленность на взаимные действия&lt;/span&gt;&lt;div&gt;&lt;span style=&quot;text-align: start;&quot;&gt;&lt;/span&gt;&lt;/div&gt;" style="rounded=1;whiteSpace=wrap;html=1;fillColor=#f8cecc;strokeColor=#b85450;fontFamily=Times New Roman;fontSize=12;" vertex="1" parent="1">
          <mxGeometry x="720" width="120" height="60" as="geometry" />
        </mxCell>
        <mxCell id="H34q3096vW5ZRXHq4TRd-18" value="R=0.172" style="rounded=0;orthogonalLoop=1;jettySize=auto;html=1;exitX=0.5;exitY=0;exitDx=0;exitDy=0;entryX=0.5;entryY=1;entryDx=0;entryDy=0;strokeColor=default;strokeWidth=0.86;" edge="1" parent="1" source="H34q3096vW5ZRXHq4TRd-17" target="H34q3096vW5ZRXHq4TRd-4">
          <mxGeometry relative="1" as="geometry" />
        </mxCell>
        <mxCell id="H34q3096vW5ZRXHq4TRd-21" value="R=0.119" style="rounded=0;orthogonalLoop=1;jettySize=auto;html=1;exitX=1;exitY=0.5;exitDx=0;exitDy=0;entryX=0;entryY=0.5;entryDx=0;entryDy=0;strokeColor=default;strokeWidth=0.595;" edge="1" parent="1" source="H34q3096vW5ZRXHq4TRd-17" target="H34q3096vW5ZRXHq4TRd-20">
          <mxGeometry relative="1" as="geometry" />
        </mxCell>
        <mxCell id="H34q3096vW5ZRXHq4TRd-17" value="&lt;br&gt;&lt;span style=&quot;font-size:14.0pt;mso-bidi-font-size:11.0pt;&lt;br/&gt;line-height:107%;font-family:&amp;quot;Times New Roman&amp;quot;;mso-fareast-font-family:Calibri;&lt;br/&gt;mso-fareast-theme-font:minor-latin;mso-ansi-language:RU;mso-fareast-language:&lt;br/&gt;EN-US;mso-bidi-language:AR-SA&quot;&gt;Циклоидный&lt;/span&gt;&lt;div&gt;&lt;br/&gt;&lt;/div&gt;" style="rounded=1;whiteSpace=wrap;html=1;fillColor=#ffe6cc;strokeColor=#d79b00;" vertex="1" parent="1">
          <mxGeometry y="280" width="120" height="60" as="geometry" />
        </mxCell>
        <mxCell id="H34q3096vW5ZRXHq4TRd-19" value="R=0.122" style="endArrow=classic;html=1;rounded=0;exitX=1;exitY=0;exitDx=0;exitDy=0;entryX=0;entryY=1;entryDx=0;entryDy=0;strokeColor=default;strokeWidth=0.61;" edge="1" parent="1" source="H34q3096vW5ZRXHq4TRd-17" target="H34q3096vW5ZRXHq4TRd-2">
          <mxGeometry width="50" height="50" relative="1" as="geometry">
            <mxPoint x="60" y="300" as="sourcePoint" />
            <mxPoint x="110" y="250" as="targetPoint" />
          </mxGeometry>
        </mxCell>
        <mxCell id="H34q3096vW5ZRXHq4TRd-20" value="&lt;div&gt;&lt;span style=&quot;background-color: transparent; font-size: 14pt; font-family: &amp;quot;Times New Roman&amp;quot;;&quot;&gt;Н&lt;/span&gt;&lt;span style=&quot;background-color: transparent; font-family: &amp;quot;Times New Roman&amp;quot;; font-size: 14pt;&quot;&gt;аправленность на задачу&lt;/span&gt;&lt;br&gt;&lt;/div&gt;" style="rounded=1;whiteSpace=wrap;html=1;fillColor=#f8cecc;strokeColor=#b85450;" vertex="1" parent="1">
          <mxGeometry x="240" y="280" width="120" height="60" as="geometry" />
        </mxCell>
      </root>
    </mxGraphModel>
  </diagram>
</mxfile>
